<?xml version="1.0" encoding="UTF-8" standalone="no"?>
<svg width="50px" height="50px" viewBox="0 0 50 50" version="1.1" xmlns="http://www.w3.org/2000/svg" xmlns:xlink="http://www.w3.org/1999/xlink">
    <!-- Generator: Sketch 3.8.2 (29753) - http://www.bohemiancoding.com/sketch -->
    <title>error</title>
    <desc>Created with Sketch.</desc>
    <defs></defs>
    <g id="Page-1" stroke="none" stroke-width="1" fill="none" fill-rule="evenodd">
        <g id="error" fill="#000000">
            <path d="M49.6304544,43.5276705 L27.8211593,2.66285121 C27.2773539,1.64121263 26.2116649,1 25.0517743,1 L25.0486721,1 C23.8887814,1 22.826298,1.63811049 22.2792871,2.65974907 L0.372584729,43.5244649 C-0.149195459,44.5052586 -0.120965972,45.6808668 0.444864624,46.6239178 C1.01379736,47.570071 2.03864149,48.1516191 3.14196979,48.1516191 L46.8547617,48.1516191 C47.9612955,48.1516191 48.9828307,47.5731731 49.5518668,46.6239178 C50.1207996,45.6777647 50.1491325,44.5021565 49.6304544,43.5276705 L49.6304544,43.5276705 Z M25.0486721,41.8647158 C23.3134376,41.8647158 21.9052722,40.456447 21.9052722,38.7213159 C21.9052722,36.9861848 23.313541,35.577916 25.0486721,35.577916 C26.7807011,35.577916 28.192072,36.9861848 28.192072,38.7213159 C28.192072,40.456447 26.7839066,41.8647158 25.0486721,41.8647158 L25.0486721,41.8647158 Z M28.1952776,29.3412675 C28.1952776,31.0796041 26.7839066,32.4846674 25.0518777,32.4846674 C23.3166432,32.4846674 21.9084778,31.0795007 21.9084778,29.3412675 L21.9084778,16.767461 C21.9084778,15.0322265 23.3167466,13.6240611 25.0518777,13.6240611 C26.7839066,13.6240611 28.1952776,15.0323299 28.1952776,16.767461 L28.1952776,29.3412675 L28.1952776,29.3412675 Z"></path>
        </g>
    </g>
</svg>