<?xml version="1.0" encoding="UTF-8" standalone="no"?>
<svg width="50px" height="50px" viewBox="0 0 50 50" version="1.1" xmlns="http://www.w3.org/2000/svg" xmlns:xlink="http://www.w3.org/1999/xlink">
    <!-- Generator: Sketch 3.8.2 (29753) - http://www.bohemiancoding.com/sketch -->
    <title>feed</title>
    <desc>Created with Sketch.</desc>
    <defs></defs>
    <g id="Page-1" stroke="none" stroke-width="1" fill="none" fill-rule="evenodd">
        <g id="feed" fill="#000000">
            <path d="M0.0187092,0 L0.0187092,9.5875541 C22.2749804,9.5875541 40.3874661,27.7188517 40.3874661,50.000103 L50,50.000103 C50.000103,22.437504 27.5750374,0 0.0187092,0 L0.0187092,0 L0.0187092,0 Z M0.0062707,16.9843809 L0.0062707,26.5687482 C6.2469289,26.5687482 12.1125802,29.0093773 16.5312475,33.4312312 C20.9437469,37.8406467 23.381292,43.7343618 23.381292,50 L33.0094512,50 C33.0094512,31.7937626 18.2000695,16.9843809 0.0062707,16.9843809 L0.0062707,16.9843809 L0.0062707,16.9843809 Z M6.6562703,36.6625821 C2.9843274,36.6625821 0,39.6531802 0,43.3031244 C0,46.9749646 2.9843274,49.9374988 6.6562703,49.9374988 C10.3406519,49.9374988 13.3218954,46.9749646 13.3218954,43.3031244 C13.3188114,39.6594509 10.3406519,36.6625821 6.6562703,36.6625821 L6.6562703,36.6625821 L6.6562703,36.6625821 Z"></path>
        </g>
    </g>
</svg>
