<?xml version="1.0" encoding="UTF-8" standalone="no"?>
<svg width="50px" height="50px" viewBox="0 0 50 50" version="1.1" xmlns="http://www.w3.org/2000/svg" xmlns:xlink="http://www.w3.org/1999/xlink">
    <!-- Generator: Sketch 3.8.2 (29753) - http://www.bohemiancoding.com/sketch -->
    <title>help</title>
    <desc>Created with Sketch.</desc>
    <defs></defs>
    <g id="Page-1" stroke="none" stroke-width="1" fill="none" fill-rule="evenodd">
        <g id="help" fill="#000000">
            <path d="M27.8666667,35.7644981 L21.6,35.7644981 L21.6,32.4758086 C21.6,31.2882203 21.71111,30.2148395 21.9333333,29.2556335 C22.1555567,28.2964276 22.4777756,27.4285877 22.9,26.6520877 C23.3222243,25.8755877 23.8333302,25.1333561 24.4333333,24.4253708 C25.0333363,23.7173856 25.7111072,22.997992 26.4666667,22.2671684 L28.9333333,19.8691656 C29.911116,19.0013127 30.722219,18.0535402 31.3666667,17.0258195 C32.0111143,15.9980988 32.3333333,14.6849201 32.3333333,13.0862436 C32.3333333,10.8937729 31.6555623,9.14667412 30.3,7.8448947 C28.9444376,6.54311527 27.2000106,5.89223532 25.0666667,5.89223532 C22.8444333,5.89223532 21.0666733,6.6230479 19.7333333,8.08469498 C18.3999933,9.54634203 17.6222233,11.3276977 17.4,13.4288154 L11,12.6751574 C11.2666679,10.7110691 11.8222179,8.94113245 12.6666667,7.36529415 C13.5111153,5.7894559 14.5666602,4.45343916 15.8333333,3.35720385 C17.1000063,2.26096854 18.5555472,1.42738544 20.2,0.856429553 C21.8444526,0.285473663 23.5999906,0 25.4666667,0 C27.3333426,0 29.0777697,0.274054716 30.7,0.822172371 C32.3222302,1.37029002 33.7555493,2.18103523 35,3.2544323 C36.2444506,4.32782937 37.2222186,5.65242717 37.9333333,7.22826543 C38.6444479,8.80410372 39,10.6197162 39,12.6751574 C39,14.1368044 38.844446,15.4157265 38.5333333,16.5119618 C38.2222206,17.608197 37.7888916,18.6016454 37.2333333,19.4923366 C36.6777749,20.3830278 36.0000039,21.2166109 35.2,21.9931109 C34.399996,22.7696109 33.5333379,23.5689372 32.6,24.3911137 C31.7111067,25.1676136 30.9555586,25.8641694 30.3333333,26.4808018 C29.7111079,27.0974341 29.2222239,27.7254762 28.8666667,28.3649468 C28.5111093,29.0044173 28.2555563,29.7123921 28.1,30.4888921 C27.9444436,31.2653921 27.8666667,32.2245836 27.8666667,33.3664954 L27.8666667,35.7644981 L27.8666667,35.7644981 Z M29.5333333,45.4250235 C29.5333333,46.6126118 29.1111153,47.6631548 28.2666667,48.5766842 C27.4222179,49.4902137 26.355562,49.9469715 25.0666667,49.9469715 C23.822216,49.9469715 22.7666709,49.5016326 21.9,48.6109414 C21.033329,47.7202502 20.6,46.6811261 20.6,45.4935378 C20.6,44.2602731 21.0222179,43.1983111 21.8666667,42.3076199 C22.7111153,41.4169287 23.7777713,40.9715898 25.0666667,40.9715898 C26.355562,40.9715898 27.4222179,41.4055098 28.2666667,42.2733627 C29.1111153,43.1412156 29.5333333,44.1917588 29.5333333,45.4250235 L29.5333333,45.4250235 L29.5333333,45.4250235 Z"></path>
        </g>
    </g>
</svg>