<?xml version="1.0" encoding="UTF-8" standalone="no"?>
<svg width="55px" height="13px" viewBox="0 0 55 13" version="1.1" xmlns="http://www.w3.org/2000/svg" xmlns:xlink="http://www.w3.org/1999/xlink">
    <!-- Generator: Sketch 3.8.3 (29802) - http://www.bohemiancoding.com/sketch -->
    <title>logo/dash</title>
    <desc>Created with Sketch.</desc>
    <defs></defs>
    <g id="Symbols" stroke="none" stroke-width="1" fill="none" fill-rule="evenodd">
        <g id="logo/dash" fill="#2C3857">
            <path d="M23.3326369,8.82600424 C24.6666441,8.82600424 25.7027354,7.76593791 25.7096144,6.36966055 C25.7164935,5.01236418 24.6909854,3.96529151 23.3569781,3.96529151 L22.0838241,3.96529151 L22.0594828,8.82600424 L23.3326369,8.82600424 Z M23.3670321,2 C25.9503813,2 27.8087841,3.7969153 27.7955551,6.36966055 C27.7828554,8.98084539 25.9059321,10.7907543 23.3225829,10.7907543 L20,10.7907543 L20.0439201,2 L23.3670321,2 Z" id="Fill-1"></path>
            <polygon id="Fill-3" points="54.4584815 10.7907543 52.4090527 10.7907543 52.4254566 7.49415379 49.0663619 7.49415379 49.0494288 10.7907543 47 10.7907543 47.0444493 2 49.0938781 2 49.0758867 5.52940368 52.4355106 5.52940368 52.453502 2 54.5029308 2"></polygon>
            <path d="M32.7068392,4.54675793 L31.6247111,7.46870787 L33.7593343,7.46870787 L32.7068392,4.54675793 Z M30.9362766,9.33005008 L30.3827774,10.842729 L28.2000008,10.842729 L31.7495924,2 L33.7021853,2 L37.1501786,10.842729 L34.9795726,10.842729 L34.4292483,9.33005008 L30.9362766,9.33005008 Z" id="Fill-5"></path>
            <path d="M42.7153057,5.8006464 L41.5649163,5.51641002 C40.9468598,5.37402113 40.6203693,5.16720533 40.6230151,4.68914682 C40.6256609,4.12013266 41.1003156,3.80990896 41.8035665,3.80990896 C42.5560291,3.80990896 42.9439019,4.17589713 43.091537,4.72921061 L45.0197886,4.05029172 C44.4689352,2.41471441 42.8311913,2 41.6792144,2 C39.7387921,2 38.3994933,3.11149958 38.3904976,4.86997529 C38.3836186,6.26625265 39.1434894,7.08052219 40.7664169,7.4551728 L42.1231779,7.77839017 C42.8258997,7.92077906 42.9941719,8.23100276 42.9925845,8.5282328 C42.9904678,9.00683271 42.5883078,9.30731117 41.8247328,9.30731117 C40.9129937,9.30731117 40.3034037,8.89422097 40.1256066,8.20555684 L38.2000008,8.88339292 C38.6847095,10.4816135 40.1494187,11.1686534 41.7543548,11.1686534 C43.8159543,11.1686534 45.1801235,10.0685233 45.18859,8.31004754 C45.1965274,6.79791002 44.2175851,6.14985109 42.7153057,5.8006464" id="Fill-7"></path>
            <path d="M6.7341041,0 L0,0 L1.54847472,12.7860372 L6.7341041,12.7860372 C10.142339,12.7860372 12.9052814,9.88011966 12.9052814,6.3930186 C12.9052814,2.90591755 10.142339,0 6.7341041,0" id="Fill-1"></path>
        </g>
    </g>
</svg>